<?xml version="1.0" standalone="no"?>
<!DOCTYPE svg PUBLIC "-//W3C//DTD SVG 20010904//EN"
 "http://www.w3.org/TR/2001/REC-SVG-20010904/DTD/svg10.dtd">
<svg version="1.0" xmlns="http://www.w3.org/2000/svg"
 width="50.000000pt" height="50.000000pt" viewBox="0 0 50.000000 50.000000"
 preserveAspectRatio="xMidYMid meet">

<g transform="translate(0.000000,50.000000) scale(0.100000,-0.100000)"
fill="#000000" stroke="none">
<path d="M218 449 c-10 -5 -18 -17 -18 -24 0 -10 -10 -15 -30 -15 -16 0 -30 5
-30 10 0 6 -20 10 -45 10 -25 0 -45 -4 -45 -10 0 -5 -11 -20 -25 -34 -24 -24
-25 -30 -25 -151 0 -120 1 -127 25 -150 24 -25 25 -25 225 -25 200 0 201 0
225 25 24 23 25 30 25 150 0 120 -1 127 -25 150 -13 14 -36 25 -50 25 -15 0
-25 6 -25 15 0 8 -9 19 -19 25 -25 13 -141 13 -163 -1z m143 -94 c64 -34 87
-120 49 -182 -50 -83 -170 -83 -220 0 -68 111 55 242 171 182z m-275 -6 c10
-17 -13 -36 -27 -22 -12 12 -4 33 11 33 5 0 12 -5 16 -11z"/>
<path d="M248 334 c-30 -16 -58 -61 -58 -94 0 -53 57 -110 110 -110 53 0 110
57 110 110 0 34 -28 78 -60 95 -36 19 -67 19 -102 -1z"/>
</g>
</svg>
