<?xml version="1.0" encoding="UTF-8" standalone="no"?>
<svg
   version="1.0"
   width="500.000000pt"
   height="500.000000pt"
   viewBox="0 0 500.000000 500.000000"
   preserveAspectRatio="xMidYMid meet"
   id="svg38"
   sodipodi:docname="polisvg.svg"
   inkscape:version="1.2.2 (b0a8486, 2022-12-01)"
   xmlns:inkscape="http://www.inkscape.org/namespaces/inkscape"
   xmlns:sodipodi="http://sodipodi.sourceforge.net/DTD/sodipodi-0.dtd"
   xmlns="http://www.w3.org/2000/svg"
   xmlns:svg="http://www.w3.org/2000/svg">
  <defs
     id="defs42">
    <rect
       x="207.50089"
       y="389.76519"
       width="305.6432"
       height="47.669124"
       id="rect328" />
  </defs>
  <sodipodi:namedview
     id="namedview40"
     pagecolor="#ffffff"
     bordercolor="#000000"
     borderopacity="0.25"
     inkscape:showpageshadow="2"
     inkscape:pageopacity="0.0"
     inkscape:pagecheckerboard="0"
     inkscape:deskcolor="#d1d1d1"
     inkscape:document-units="pt"
     showgrid="false"
     inkscape:zoom="0.71324995"
     inkscape:cx="173.8521"
     inkscape:cy="347.7042"
     inkscape:window-width="1710"
     inkscape:window-height="966"
     inkscape:window-x="0"
     inkscape:window-y="39"
     inkscape:window-maximized="1"
     inkscape:current-layer="g36" />
  <g
     transform="translate(0.000000,500.000000) scale(0.100000,-0.100000)"
     fill="#000000"
     stroke="none"
     id="g36">
    <path
       d="m 1372.5762,3085.0305 c -219,-20 -451.99996,-74 -566.99996,-130 -70,-35 -163,-106 -163,-125 0,-19 24,-8 66,30 87,81 247,143 468.99996,182 167,29 486,33 603,7 194,-45 304,-146 273,-254 -14,-51 -38,-89 -90,-146 -63,-69 -92,-83 -226,-108 -60,-12 -168,-35 -238,-51 -71,-17 -130,-29 -133,-27 -2,3 23,75 56,160 63,164 71,202 44,196 -10,-2 -28,-36 -49,-93 -46,-130 -105,-268 -118,-281 -7,-6 -59,-25 -117,-42 -172,-50 -332.99996,-111 -385.99996,-145 -60,-39 -70,-71 -27,-88 37,-14 178,2 319.99996,38 57,14 106,23 109,20 6,-6 -41,-101 -145,-291 -87.99996,-160 -93.99996,-173 -80.99996,-181 14,-9 24,8 153.99996,247 67,124 128,233 134,241 7,8 54,29 105,47 152,53 330,134 439,200 73,44 119,64 158,71 106,17 103,22 58,-87 -49,-118 -50,-177 -5,-182 16,-2 43,6 63,17 42,25 44,25 44,7 0,-26 55,-29 88,-3 8,6 12,6 12,-2 0,-21 28,-11 71,24 23,20 50,40 61,46 17,9 18,7 12,-30 -8,-50 11,-62 61,-38 29,14 34,14 39,1 8,-20 56,-17 90,5 29,19 29,19 46,-1 15,-19 20,-20 53,-9 34,12 83,58 72,69 -2,2 -21,-10 -41,-27 -42,-38 -60,-36 -58,8 2,42 -16,40 -72,-5 -51,-42 -65,-39 -36,8 27,43 71,70 95,57 13,-8 17,-6 17,6 0,45 -70,23 -147,-47 -54,-49 -103,-66 -88,-30 4,9 10,29 13,45 5,32 -15,36 -62,12 -36,-19 -47,-19 -40,0 11,29 -25,15 -41,-15 -14,-27 -78,-70 -105,-70 -15,0 -12,26 6,61 24,48 6,48 -33,1 -57,-69 -123,-92 -123,-43 0,11 18,69 41,129 48,129 26,119 267,129 126,5 152,9 148,20 -9,23 22,72 49,79 32,8 32,20 0,28 -16,4 -32,20 -42,41 l -17,35 -12,-30 c -7,-16 -24,-35 -39,-42 -25,-11 -34,-28 -15,-28 17,0 60,-47 60,-65 0,-12 -12,-15 -57,-15 -32,0 -107,-5 -167,-10 -60,-6 -111,-8 -114,-6 -3,3 5,29 17,57 24,58 27,83 9,77 -7,-3 -23,-31 -36,-64 -13,-32 -29,-64 -35,-71 -7,-6 -36,-14 -66,-18 l -54,-7 58,68 c 120,142 125,229 19,323 -84,74 -227,110 -454,115 -85,2 -175,2 -200,0 z m 415,-571 c -55,-43 -488,-234 -501,-220 -6,6 45,114 60,126 12,10 94,32 371,99 22,6 51,10 65,11 25,0 25,0 5,-16 z m -505,-118 c 0,-14 -49,-112 -62,-122 -8,-7 -75,-28 -149,-47 -152.99996,-39 -271.99996,-55 -283.99996,-37 -19,32 77,82 298.99996,157 148,50 196,62 196,49 z"
       id="path2" />
    <path
       d="M3226 2651 c-32 -16 -59 -24 -62 -19 -6 9 -30 7 -106 -8 -21 -4 -28 -11 -28 -29 0 -13 -11 -35 -25 -49 -14 -14 -25 -37 -25 -51 0 -22 4 -25 35 -25 35 0 35 0 34 -42 -1 -24 -5 -72 -9 -108 -7 -65 -7 -64 -8 33 -2 95 -2 97 -26 97 -31 0 -36 -20 -36 -142 0 -86 -2 -98 -17 -98 -12 0 -14 -3 -7 -10 8 -8 128 -10 365 -8 396 3 401 4 449 74 36 53 41 156 10 218 -54 112 -182 113 -231 0 -21 -46 -27 -120 -15 -164 6 -22 5 -21 -10 5 -11 19 -18 53 -18 92 -1 49 4 67 22 93 28 38 24 47 -15 28 -54 -25 -78 -111 -61 -218 l7 -45 -16 35 c-10 24 -14 57 -11 110 l3 75 -47 -3 c-57 -5 -64 -21 -10 -24 l37 -1 -35 -4 c-61 -7 -67 -17 -15 -23 l50 -7 -47 -1 c-34 -2 -48 -6 -48 -16 0 -10 14 -16 43 -19 l42 -4 -44 -1 -44 -2 5 -51 c4 -35 2 -47 -5 -40 -19 19 -21 123 -3 165 20 49 20 49 -8 31 -60 -40 -70 -171 -17 -237 18 -21 30 -24 173 -34 l153 -11 -173 -1 -173 -2 -21 48 c-30 67 -31 191 -2 247 l21 40 89 3 c88 2 204 18 154 21 -21 1 -28 9 -40 44 -14 40 -18 43 -70 54 -84 17 -103 15 -164 -16z m167 3 c28 -5 42 -14 53 -35 17 -33 18 -32 -56 -30 -76 3 -90 9 -90 35 0 38 15 42 93 30z m-233 -43 c0 -19 -25 -31 -67 -31 -16 0 -23 6 -23 20 0 22 35 28 43 8 3 -8 6 -6 6 5 1 24 41 23 41 -2z m40 -40 c0 -5 -6 -24 -14 -43 -8 -19 -20 -64 -26 -101 -13 -70 -8 -89 46 -189 l15 -28 -53 0 c-30 0 -59 5 -66 12 -8 8 -12 57 -12 153 0 157 7 178 63 194 43 12 47 12 47 2z m485 -162 c4 -21 0 -52 -8 -78 -11 -32 -12 -39 -2 -31 22 18 35 91 25 135 -13 55 -12 64 5 35 17 -30 19 -123 4 -153 -37 -72 -100 -90 -139 -39 -21 25 -21 27 -3 30 43 8 58 81 25 122 -17 21 -19 21 -35 5 -23 -22 -22 -3 1 25 14 17 25 21 44 17 33 -9 51 -53 46 -116 -2 -33 0 -47 7 -40 12 12 13 101 2 144 l-8 30 15 -25 c8 -14 18 -41 21 -61z m-482 -41 c7 -43 -8 -51 -25 -13 -8 19 -8 28 2 40 16 19 16 19 23 -27z m567 -3 c0 -62 -50 -129 -105 -140 l-30 -6 31 17 c36 19 74 79 74 116 0 14 3 28 7 31 13 14 23 6 23 -18z"
       id="path4" />
    <path
       d="M3411 2529 c-56 -11 -64 -19 -20 -19 20 0 44 7 55 15 10 8 17 14 14 14 -3 -1 -25 -5 -49 -10z"
       id="path6" />
    <path
       d="M2145 2470 c-14 -26 -14 -30 -1 -30 15 0 36 29 36 49 0 21 -20 10 -35 -19z"
       id="path8" />
    <path
       d="M1790 2398 c-11 -4 -28 -23 -37 -43 -22 -47 -10 -69 41 -73 46 -4 81 17 103 63 13 28 14 37 3 50 -13 16 -71 17 -110 3z m80 -28 c0 -29 -46 -72 -72 -68 -31 4 -32 21 -3 57 32 37 75 43 75 11z"
       id="path10" />
    <text
       xml:space="preserve"
       transform="matrix(7.5,0,0,-7.5,0,5000)"
       id="text326"
       style="fill:#fde3ad;font-size:29.33333333px;white-space:pre;shape-inside:url(#rect328)" />
    <text
       xml:space="preserve"
       style="font-size:220px;white-space:pre;inline-size:1729.18;fill:#fde3ad;stroke-width:7.5"
       x="2450.0527"
       y="-1940.063"
       id="text334"
       transform="scale(1,-1)" />
    <text
       xml:space="preserve"
       style="font-size:220px;white-space:pre;inline-size:1729.18;fill:#fde3ad;stroke-width:7.5"
       x="2450.0527"
       y="-1940.063"
       id="text388"
       transform="matrix(1,0,0,-1,252.36595,-1051.5248)" />
    <text
       xml:space="preserve"
       style="font-size:220px;white-space:pre;inline-size:1729.18;fill:#fde3ad;stroke-width:7.5"
       x="2450.0527"
       y="-1940.063"
       id="text392"
       transform="matrix(1.6099048,0,0,-1.3803585,-2270.8553,-719.23521)"><tspan
         x="2450.0527"
         y="-1940.063"
         id="tspan1652"><tspan
           style="font-family:'Bradley Hand';-inkscape-font-specification:'Bradley Hand';fill:#000000"
           id="tspan1650">Photography</tspan></tspan></text>
  </g>
</svg>
