<svg xmlns="http://www.w3.org/2000/svg" xmlns:xlink="http://www.w3.org/1999/xlink" width="500" zoomAndPan="magnify" viewBox="0 0 375 374.999991" height="500" preserveAspectRatio="xMidYMid meet" version="1.0"><defs><g/><clipPath id="50a777f75c"><path d="M 220.597656 173.910156 L 284.734375 173.910156 L 284.734375 210.660156 L 220.597656 210.660156 Z M 220.597656 173.910156 " clip-rule="nonzero"/></clipPath><clipPath id="1617b374fa"><path d="M 171.917969 164.625 L 189.167969 164.625 L 189.167969 181.875 L 171.917969 181.875 Z M 171.917969 164.625 " clip-rule="nonzero"/></clipPath></defs><rect x="-37.5" width="450" fill="#ffffff" y="-37.499999" height="449.999989" fill-opacity="1"/><rect x="-37.5" width="450" fill="#ffffff" y="-37.499999" height="449.999989" fill-opacity="1"/><rect x="-37.5" width="450" fill="#ffffff" y="-37.499999" height="449.999989" fill-opacity="1"/><g fill="#000000" fill-opacity="1"><g transform="translate(64.423661, 209.62777)"><g><path d="M 116.515625 -30.1875 C 116.898438 -30.113281 117.203125 -29.957031 117.421875 -29.71875 C 117.648438 -29.476562 117.695312 -29.242188 117.5625 -29.015625 C 117.414062 -28.804688 117.253906 -28.675781 117.078125 -28.625 C 116.910156 -28.582031 116.722656 -28.578125 116.515625 -28.609375 C 116.253906 -28.609375 115.988281 -28.625 115.71875 -28.65625 C 111.914062 -28.769531 106.878906 -28.550781 100.609375 -28 C 94.335938 -27.445312 89.285156 -26.910156 85.453125 -26.390625 C 82.492188 -26.003906 79.539062 -25.585938 76.59375 -25.140625 C 76.53125 -25.140625 76.441406 -25.113281 76.328125 -25.0625 C 75.097656 -24.882812 73.972656 -24.429688 72.953125 -23.703125 C 69.191406 -21.140625 65.304688 -18.820312 61.296875 -16.75 C 57.285156 -14.675781 53.195312 -12.742188 49.03125 -10.953125 C 42.269531 -7.960938 35.359375 -5.359375 28.296875 -3.140625 C 26.859375 -2.753906 25.804688 -1.875 25.140625 -0.5 C 22.003906 5.738281 18.738281 11.847656 15.34375 17.828125 C 12.320312 23.148438 9.421875 28.535156 6.640625 33.984375 C 6.640625 34.015625 6.625 34.046875 6.59375 34.078125 C 6.476562 34.367188 6.332031 34.597656 6.15625 34.765625 C 5.875 35.003906 5.539062 35.09375 5.15625 35.03125 C 4.945312 35.09375 4.738281 35.09375 4.53125 35.03125 C 4.09375 34.851562 3.875 34.535156 3.875 34.078125 C 3.925781 33.304688 4.175781 32.585938 4.625 31.921875 C 4.65625 31.890625 4.671875 31.847656 4.671875 31.796875 C 7.484375 26.753906 10.25 21.707031 12.96875 16.65625 C 15.695312 11.601562 18.332031 6.484375 20.875 1.296875 C 21.082031 0.859375 21.289062 0.414062 21.5 -0.03125 C 21.570312 -0.25 21.660156 -0.476562 21.765625 -0.71875 C 21.523438 -0.78125 21.300781 -0.835938 21.09375 -0.890625 C 20.6875 -0.804688 20.289062 -0.691406 19.90625 -0.546875 C 19.769531 -0.515625 19.632812 -0.46875 19.5 -0.40625 C 14.582031 1 9.609375 2.195312 4.578125 3.1875 C 1.097656 3.8125 -2.398438 4.25 -5.921875 4.5 C -6.097656 4.53125 -6.253906 4.546875 -6.390625 4.546875 C -6.742188 4.578125 -7.097656 4.59375 -7.453125 4.59375 C -8.804688 4.59375 -10.125 4.390625 -11.40625 3.984375 C -12.382812 3.628906 -12.96875 3.070312 -13.15625 2.3125 C -13.34375 1.550781 -13.113281 0.734375 -12.46875 -0.140625 C -11.582031 -1.160156 -10.539062 -2 -9.34375 -2.65625 C -6.625 -4.351562 -3.773438 -5.742188 -0.796875 -6.828125 C 7.179688 -9.847656 15.265625 -12.5 23.453125 -14.78125 C 23.898438 -14.925781 24.375 -15.054688 24.875 -15.171875 C 25.925781 -15.378906 26.90625 -15.6875 27.8125 -16.09375 C 28.726562 -16.5 29.421875 -17.207031 29.890625 -18.21875 C 31.609375 -22.1875 33.265625 -26.164062 34.859375 -30.15625 C 36.460938 -34.144531 37.953125 -38.195312 39.328125 -42.3125 C 39.328125 -42.351562 39.34375 -42.40625 39.375 -42.46875 C 39.582031 -43.21875 39.863281 -43.921875 40.21875 -44.578125 C 40.351562 -44.796875 40.535156 -44.945312 40.765625 -45.03125 C 41.003906 -45.125 41.242188 -45.144531 41.484375 -45.09375 C 41.660156 -45.144531 41.851562 -45.144531 42.0625 -45.09375 C 42.582031 -44.96875 42.882812 -44.617188 42.96875 -44.046875 C 42.96875 -42.960938 42.769531 -41.90625 42.375 -40.875 C 42.375 -40.84375 42.351562 -40.796875 42.3125 -40.734375 C 40.59375 -35.460938 38.660156 -30.28125 36.515625 -25.1875 C 35.960938 -23.78125 35.390625 -22.390625 34.796875 -21.015625 C 34.566406 -20.523438 34.351562 -20.015625 34.15625 -19.484375 C 33.875 -18.859375 33.757812 -18.429688 33.8125 -18.203125 C 33.863281 -17.972656 34.023438 -17.863281 34.296875 -17.875 C 34.578125 -17.894531 34.921875 -17.972656 35.328125 -18.109375 C 35.453125 -18.148438 35.585938 -18.1875 35.734375 -18.21875 C 37.285156 -18.613281 38.832031 -19.003906 40.375 -19.390625 C 43.1875 -20.085938 46.015625 -20.789062 48.859375 -21.5 C 55.828125 -23.144531 62.84375 -24.550781 69.90625 -25.71875 C 71.164062 -25.925781 72.265625 -26.410156 73.203125 -27.171875 C 75.222656 -28.691406 77.210938 -30.476562 79.171875 -32.53125 C 81.140625 -34.582031 82.765625 -36.796875 84.046875 -39.171875 C 85.335938 -41.546875 85.914062 -43.984375 85.78125 -46.484375 C 85.65625 -48.984375 84.507812 -51.460938 82.34375 -53.921875 C 80.9375 -55.390625 79.335938 -56.617188 77.546875 -57.609375 C 73.773438 -59.640625 69.242188 -61.128906 63.953125 -62.078125 C 58.671875 -63.023438 53.003906 -63.523438 46.953125 -63.578125 C 40.910156 -63.640625 34.859375 -63.332031 28.796875 -62.65625 C 22.734375 -61.988281 17.054688 -61.0625 11.765625 -59.875 C 6.472656 -58.6875 1.9375 -57.332031 -1.84375 -55.8125 C -5.125 -54.519531 -8.238281 -52.921875 -11.1875 -51.015625 C -12.382812 -50.285156 -13.507812 -49.476562 -14.5625 -48.59375 C -15.625 -47.71875 -16.566406 -46.710938 -17.390625 -45.578125 C -17.710938 -45.085938 -18.140625 -44.820312 -18.671875 -44.78125 C -18.773438 -44.78125 -18.898438 -44.78125 -19.046875 -44.78125 C -19.078125 -44.78125 -19.109375 -44.78125 -19.140625 -44.78125 C -19.347656 -44.78125 -19.546875 -44.804688 -19.734375 -44.859375 C -19.929688 -44.921875 -20.085938 -45.039062 -20.203125 -45.21875 C -20.265625 -45.363281 -20.296875 -45.507812 -20.296875 -45.65625 C -20.296875 -45.8125 -20.28125 -45.945312 -20.25 -46.0625 C -19.976562 -46.695312 -19.609375 -47.257812 -19.140625 -47.75 C -18.679688 -48.238281 -18.210938 -48.710938 -17.734375 -49.171875 C -16.453125 -50.253906 -15.117188 -51.234375 -13.734375 -52.109375 C -12.359375 -52.992188 -10.941406 -53.820312 -9.484375 -54.59375 C -5.765625 -56.570312 -1.007812 -58.351562 4.78125 -59.9375 C 10.582031 -61.519531 16.953125 -62.789062 23.890625 -63.75 C 30.835938 -64.71875 37.832031 -65.242188 44.875 -65.328125 C 51.925781 -65.421875 58.523438 -64.957031 64.671875 -63.9375 C 70.828125 -62.914062 76.070312 -61.207031 80.40625 -58.8125 C 82.332031 -57.75 84.0625 -56.394531 85.59375 -54.75 C 87.75 -52.320312 88.972656 -49.921875 89.265625 -47.546875 C 89.566406 -45.179688 89.242188 -42.882812 88.296875 -40.65625 C 87.347656 -38.425781 86.035156 -36.300781 84.359375 -34.28125 C 82.691406 -32.257812 80.976562 -30.367188 79.21875 -28.609375 C 79.007812 -28.429688 78.800781 -28.210938 78.59375 -27.953125 C 78.394531 -27.691406 78.3125 -27.472656 78.34375 -27.296875 C 78.375 -27.117188 78.632812 -27.0625 79.125 -27.125 C 85.019531 -28.082031 90.898438 -28.804688 96.765625 -29.296875 C 102.640625 -29.785156 108.550781 -30.117188 114.5 -30.296875 C 114.675781 -30.296875 114.835938 -30.296875 114.984375 -30.296875 L 115.03125 -30.296875 C 115.519531 -30.296875 116.015625 -30.257812 116.515625 -30.1875 Z M 23.71875 -4.625 C 23.851562 -4.945312 24.09375 -5.398438 24.4375 -5.984375 C 24.9375 -6.929688 25.457031 -7.972656 26 -9.109375 C 26.539062 -10.253906 26.9375 -11.257812 27.1875 -12.125 C 27.4375 -12.988281 27.3125 -13.460938 26.8125 -13.546875 C 26.507812 -13.492188 26.210938 -13.421875 25.921875 -13.328125 C 25.859375 -13.328125 25.773438 -13.3125 25.671875 -13.28125 C 24.546875 -12.925781 23.414062 -12.585938 22.28125 -12.265625 C 19.582031 -11.484375 16.875 -10.65625 14.15625 -9.78125 C 14.03125 -9.75 13.894531 -9.703125 13.75 -9.640625 C 8.894531 -8.148438 4.113281 -6.4375 -0.59375 -4.5 C -2.976562 -3.53125 -5.238281 -2.34375 -7.375 -0.9375 C -8.195312 -0.46875 -8.867188 0.144531 -9.390625 0.90625 C -9.597656 1.226562 -9.65625 1.519531 -9.5625 1.78125 C -9.476562 2.050781 -9.265625 2.253906 -8.921875 2.390625 C -8.179688 2.628906 -7.425781 2.75 -6.65625 2.75 C -5.988281 2.75 -5.320312 2.71875 -4.65625 2.65625 C -4.613281 2.65625 -4.59375 2.65625 -4.59375 2.65625 C -1.113281 2.300781 2.304688 1.734375 5.671875 0.953125 C 11.023438 -0.222656 16.316406 -1.601562 21.546875 -3.1875 C 21.617188 -3.238281 21.675781 -3.265625 21.71875 -3.265625 C 22.125 -3.359375 22.503906 -3.5 22.859375 -3.6875 C 23.210938 -3.882812 23.5 -4.195312 23.71875 -4.625 Z M 28.203125 -5.5625 C 31.367188 -6.375 35.675781 -7.894531 41.125 -10.125 C 46.570312 -12.351562 51.804688 -14.707031 56.828125 -17.1875 C 61.847656 -19.675781 65.269531 -21.726562 67.09375 -23.34375 C 66.851562 -23.34375 66.644531 -23.34375 66.46875 -23.34375 C 66.394531 -23.34375 66.34375 -23.34375 66.3125 -23.34375 C 55.269531 -21.15625 44.34375 -18.550781 33.53125 -15.53125 C 32.570312 -15.257812 31.914062 -14.679688 31.5625 -13.796875 C 30.90625 -12.390625 30.257812 -11.003906 29.625 -9.640625 C 29.125 -8.609375 28.628906 -7.566406 28.140625 -6.515625 C 28.066406 -6.367188 28.019531 -6.207031 28 -6.03125 C 27.988281 -5.863281 28.054688 -5.707031 28.203125 -5.5625 Z M 28.203125 -5.5625 "/></g></g></g><g fill="#000000" fill-opacity="1"><g transform="translate(131.618512, 209.62777)"><g><path d="M 3.8125 -5.671875 L 3.734375 -5.671875 C 1.421875 -5.710938 -0.0976562 -6.226562 -0.828125 -7.21875 C -1.566406 -8.21875 -1.539062 -9.550781 -0.75 -11.21875 C -0.0703125 -12.476562 0.773438 -13.578125 1.796875 -14.515625 C 2.148438 -14.835938 2.507812 -15.09375 2.875 -15.28125 C 3.238281 -15.476562 3.65625 -15.578125 4.125 -15.578125 C 4.394531 -15.628906 4.707031 -15.582031 5.0625 -15.4375 C 5.164062 -15.40625 5.273438 -15.363281 5.390625 -15.3125 C 5.660156 -15.363281 5.925781 -15.453125 6.1875 -15.578125 C 6.25 -15.628906 6.335938 -15.671875 6.453125 -15.703125 C 6.972656 -15.910156 7.53125 -15.992188 8.125 -15.953125 C 8.363281 -15.953125 8.609375 -15.953125 8.859375 -15.953125 C 9.804688 -15.816406 10.519531 -15.421875 11 -14.765625 C 11.476562 -14.117188 11.644531 -13.332031 11.5 -12.40625 C 11.425781 -11.851562 11.25 -11.328125 10.96875 -10.828125 C 9.132812 -7.535156 6.796875 -5.816406 3.953125 -5.671875 Z M 7.59375 -14.265625 C 6.332031 -14.304688 5.207031 -13.9375 4.21875 -13.15625 C 3.238281 -12.382812 2.507812 -11.492188 2.03125 -10.484375 C 1.550781 -9.484375 1.421875 -8.660156 1.640625 -8.015625 C 1.859375 -7.367188 2.523438 -7.191406 3.640625 -7.484375 C 4.898438 -7.859375 6.015625 -8.570312 6.984375 -9.625 C 7.953125 -10.6875 8.539062 -11.691406 8.75 -12.640625 C 8.96875 -13.585938 8.582031 -14.128906 7.59375 -14.265625 Z M 7.59375 -14.265625 "/></g></g></g><g fill="#000000" fill-opacity="1"><g transform="translate(144.343357, 209.62777)"><g><path d="M 11.59375 -11.4375 C 12.125 -11.957031 12.5625 -12.25 12.90625 -12.3125 C 13.257812 -12.375 13.488281 -12.316406 13.59375 -12.140625 C 13.695312 -11.972656 13.628906 -11.738281 13.390625 -11.4375 C 11.984375 -9.738281 10.410156 -8.273438 8.671875 -7.046875 C 6.929688 -5.816406 5.140625 -5.101562 3.296875 -4.90625 C 1.453125 -4.71875 0.335938 -5.726562 -0.046875 -7.9375 C -0.335938 -10.125 0.984375 -14.578125 3.921875 -21.296875 C 6.867188 -28.023438 9.195312 -33.539062 10.90625 -37.84375 C 11.050781 -38.226562 11.265625 -38.5625 11.546875 -38.84375 C 11.929688 -39.226562 12.390625 -39.316406 12.921875 -39.109375 C 13.097656 -39.023438 13.269531 -38.894531 13.4375 -38.71875 C 13.613281 -38.550781 13.671875 -38.242188 13.609375 -37.796875 C 6.054688 -19.867188 2.398438 -10.117188 2.640625 -8.546875 C 2.878906 -6.984375 3.890625 -6.597656 5.671875 -7.390625 C 7.453125 -8.179688 8.820312 -8.988281 9.78125 -9.8125 C 10.75 -10.632812 11.351562 -11.175781 11.59375 -11.4375 Z M 11.59375 -11.4375 "/></g></g></g><g fill="#000000" fill-opacity="1"><g transform="translate(156.301356, 209.62777)"><g><path d="M 9.53125 -10.09375 C 8.675781 -9.082031 7.664062 -8.148438 6.5 -7.296875 C 5.332031 -6.453125 4.007812 -5.882812 2.53125 -5.59375 C 1.0625 -5.300781 -0.078125 -5.410156 -0.890625 -5.921875 C -1.703125 -6.429688 -1.859375 -7.566406 -1.359375 -9.328125 C -0.722656 -11.140625 0.148438 -12.867188 1.265625 -14.515625 C 1.523438 -14.867188 1.894531 -15.117188 2.375 -15.265625 C 2.726562 -15.347656 3.035156 -15.285156 3.296875 -15.078125 C 3.554688 -14.878906 3.65625 -14.628906 3.59375 -14.328125 C 3.351562 -13.753906 3.085938 -13.179688 2.796875 -12.609375 C 2.515625 -12.035156 2.328125 -11.660156 2.234375 -11.484375 C 1.671875 -10.453125 1.273438 -9.378906 1.046875 -8.265625 C 1.046875 -7.628906 1.898438 -7.585938 3.609375 -8.140625 C 5.328125 -8.703125 6.988281 -9.726562 8.59375 -11.21875 C 10.207031 -12.71875 10.976562 -13.160156 10.90625 -12.546875 C 10.84375 -11.929688 10.382812 -11.113281 9.53125 -10.09375 Z M 5.34375 -18.109375 C 5.257812 -18.046875 5.09375 -17.96875 4.84375 -17.875 C 4.601562 -17.789062 4.34375 -17.726562 4.0625 -17.6875 C 3.78125 -17.65625 3.554688 -17.703125 3.390625 -17.828125 C 3.234375 -17.953125 3.226562 -18.207031 3.375 -18.59375 C 3.632812 -19.269531 3.898438 -19.859375 4.171875 -20.359375 C 4.453125 -20.859375 4.816406 -21.410156 5.265625 -22.015625 C 5.554688 -22.296875 5.867188 -22.445312 6.203125 -22.46875 C 6.535156 -22.488281 6.8125 -22.398438 7.03125 -22.203125 C 7.257812 -22.003906 7.328125 -21.726562 7.234375 -21.375 C 6.878906 -20.113281 6.25 -19.023438 5.34375 -18.109375 Z M 5.34375 -18.109375 "/></g></g></g><g fill="#000000" fill-opacity="1"><g transform="translate(165.647287, 209.62777)"><g><path d="M 18.984375 -11.953125 C 19.234375 -11.640625 18.910156 -11.054688 18.015625 -10.203125 C 17.117188 -9.359375 16.164062 -8.648438 15.15625 -8.078125 C 14.15625 -7.503906 12.992188 -6.925781 11.671875 -6.34375 C 10.796875 -5.96875 9.859375 -5.84375 8.859375 -5.96875 C 7.867188 -6.09375 7.375 -6.691406 7.375 -7.765625 C 7.375 -8.835938 7.625 -9.898438 8.125 -10.953125 C 8.613281 -12.035156 8.71875 -12.59375 8.4375 -12.625 C 8.164062 -12.65625 7.585938 -12.394531 6.703125 -11.84375 C 4.421875 -10.332031 2.296875 -8.613281 0.328125 -6.6875 C -0.191406 -6.050781 -0.859375 -5.695312 -1.671875 -5.625 C -2.085938 -5.625 -2.410156 -5.753906 -2.640625 -6.015625 C -2.878906 -6.285156 -2.910156 -6.570312 -2.734375 -6.875 C -1.328125 -9.476562 0.09375 -12.050781 1.53125 -14.59375 C 1.851562 -15.125 2.332031 -15.453125 2.96875 -15.578125 C 3.238281 -15.628906 3.488281 -15.546875 3.71875 -15.328125 C 3.957031 -15.109375 4.078125 -14.863281 4.078125 -14.59375 C 4.046875 -14.332031 3.941406 -14.03125 3.765625 -13.6875 C 3.679688 -13.476562 3.601562 -13.273438 3.53125 -13.078125 C 3.457031 -12.890625 3.429688 -12.726562 3.453125 -12.59375 C 3.484375 -12.46875 3.585938 -12.429688 3.765625 -12.484375 C 4.003906 -12.609375 4.242188 -12.742188 4.484375 -12.890625 C 5.085938 -13.242188 5.671875 -13.582031 6.234375 -13.90625 C 6.722656 -14.1875 7.238281 -14.4375 7.78125 -14.65625 C 8.332031 -14.882812 8.898438 -15.039062 9.484375 -15.125 C 10.441406 -15.1875 11.117188 -14.96875 11.515625 -14.46875 C 11.921875 -13.976562 11.972656 -13.289062 11.671875 -12.40625 C 11.347656 -11.613281 11.007812 -10.828125 10.65625 -10.046875 C 10.226562 -9.304688 10.15625 -8.742188 10.4375 -8.359375 C 10.726562 -7.972656 12.066406 -8.414062 14.453125 -9.6875 L 16.25 -10.734375 C 17.9375 -11.816406 18.847656 -12.222656 18.984375 -11.953125 Z M 18.984375 -11.953125 "/></g></g></g><g fill="#000000" fill-opacity="1"><g transform="translate(183.212846, 209.62777)"><g><path d="M 17.390625 -12.203125 C 17.765625 -11.992188 17.789062 -11.472656 17.46875 -10.640625 C 17.007812 -10.035156 16.515625 -9.46875 15.984375 -8.9375 C 15.453125 -8.40625 14.878906 -7.9375 14.265625 -7.53125 C 14.210938 -7.53125 14.1875 -7.515625 14.1875 -7.484375 C 13.769531 -7.191406 13.332031 -6.941406 12.875 -6.734375 C 9.050781 -5.359375 7.097656 -6.164062 7.015625 -9.15625 C 5.472656 -7.8125 4.4375 -6.988281 3.90625 -6.6875 C 2.644531 -5.9375 1.28125 -5.597656 -0.1875 -5.671875 C -1.28125 -5.742188 -2.019531 -6.078125 -2.40625 -6.671875 C -2.800781 -7.273438 -2.765625 -8.085938 -2.296875 -9.109375 C -1.597656 -10.722656 -0.601562 -12.160156 0.6875 -13.421875 C 2.207031 -14.828125 3.894531 -15.953125 5.75 -16.796875 C 6.738281 -17.296875 7.773438 -17.488281 8.859375 -17.375 C 9.953125 -17.3125 10.609375 -16.695312 10.828125 -15.53125 C 10.921875 -15.175781 10.832031 -14.863281 10.5625 -14.59375 C 10.21875 -14.269531 9.8125 -14.195312 9.34375 -14.375 C 9.3125 -14.375 9.265625 -14.378906 9.203125 -14.390625 C 9.148438 -14.410156 9.109375 -14.4375 9.078125 -14.46875 C 8.617188 -15.113281 8.148438 -15.382812 7.671875 -15.28125 C 7.203125 -15.175781 6.707031 -14.960938 6.1875 -14.640625 C 3.726562 -13.203125 1.894531 -11.195312 0.6875 -8.625 C 0.625 -8.507812 0.582031 -8.382812 0.5625 -8.25 C 0.550781 -8.113281 0.59375 -8.007812 0.6875 -7.9375 C 0.976562 -7.832031 1.300781 -7.847656 1.65625 -7.984375 C 2.007812 -8.128906 2.359375 -8.332031 2.703125 -8.59375 C 3.054688 -8.851562 3.351562 -9.070312 3.59375 -9.25 C 3.625 -9.300781 3.640625 -9.328125 3.640625 -9.328125 C 4.804688 -10.296875 5.945312 -11.289062 7.0625 -12.3125 C 7.5625 -12.84375 8.179688 -13.140625 8.921875 -13.203125 C 9.972656 -13.203125 10.410156 -12.734375 10.234375 -11.796875 C 10.140625 -11.441406 10.035156 -11.085938 9.921875 -10.734375 C 9.503906 -9.210938 9.488281 -8.320312 9.875 -8.0625 C 10.257812 -7.800781 10.847656 -7.800781 11.640625 -8.0625 C 12.429688 -8.320312 13.21875 -8.820312 14 -9.5625 C 14.789062 -10.3125 15.457031 -10.992188 16 -11.609375 C 16.550781 -12.222656 17.015625 -12.421875 17.390625 -12.203125 Z M 17.390625 -12.203125 "/></g></g></g><g clip-path="url(#50a777f75c)"><path fill="#000000" d="M 250.703125 187.417969 C 252.992188 185.035156 256.804688 185.066406 259.898438 184.550781 C 259.40625 184.929688 258.832031 185.511719 258.292969 186.398438 C 256.824219 186.59375 252.414062 187.144531 250.703125 187.417969 Z M 274.097656 208.140625 C 276.429688 208.140625 278.574219 206.828125 280.132812 204.71875 C 281.769531 202.519531 282.777344 199.46875 282.777344 196.082031 C 282.777344 195.96875 282.777344 195.859375 282.777344 195.742188 C 282.433594 195.625 281.796875 195.488281 281.035156 195.664062 C 281.035156 202.414062 277.449219 207.890625 273.042969 207.890625 C 272.699219 207.890625 272.367188 207.859375 272.042969 207.792969 C 272.699219 208.015625 273.382812 208.140625 274.097656 208.140625 Z M 241.398438 209.144531 C 239.476562 206.539062 238.164062 203.472656 237.46875 200.234375 C 235.460938 199.429688 235.246094 195.820312 236.890625 194.265625 C 236.960938 189.867188 238.105469 185.492188 240.359375 181.855469 C 240.222656 181.777344 240.074219 181.730469 239.929688 181.691406 C 238.566406 181.90625 235.117188 182.554688 233.628906 183.828125 C 231.75 185.433594 231.886719 188.234375 231.789062 192 C 231.71875 194.59375 231.808594 202.074219 231.867188 206.460938 C 232.503906 208.753906 234.335938 209.144531 234.335938 209.144531 Z M 222.835938 209.144531 C 222.847656 206.90625 222.867188 196.988281 223.082031 191.269531 C 224.972656 191.085938 227.558594 190.851562 227.558594 190.929688 C 227.558594 191.054688 227.488281 206.234375 227.851562 206.207031 C 228.214844 206.167969 228.417969 189.945312 228.332031 189.617188 C 228.273438 189.402344 225.246094 189.664062 223.140625 189.878906 C 223.191406 188.808594 223.257812 187.984375 223.328125 187.527344 C 223.789062 184.707031 225.679688 183.109375 227.039062 182.527344 C 226.851562 181.574219 226.578125 179.804688 226.882812 179.121094 C 226.910156 179.066406 226.941406 179.007812 226.992188 178.949219 C 227.421875 178.460938 229.722656 177.90625 231.996094 177.519531 C 234.257812 177.140625 236.570312 176.925781 237.007812 177.121094 C 237.058594 177.140625 237.117188 177.179688 237.15625 177.21875 C 237.363281 177.382812 237.566406 177.867188 237.742188 178.421875 C 238.339844 177.996094 239.632812 177.121094 241.867188 175.855469 C 245.117188 174.007812 247.527344 173.910156 247.527344 173.910156 C 247.578125 173.910156 247.617188 173.910156 247.664062 173.921875 C 249.410156 174.144531 251.132812 174.378906 252.835938 174.640625 C 254.539062 174.910156 256.1875 175.203125 257.734375 175.535156 C 257.871094 175.5625 257.996094 175.640625 258.097656 175.765625 C 258.710938 176.605469 259.203125 177.480469 259.59375 178.402344 C 259.988281 179.316406 260.261719 180.261719 260.457031 181.222656 L 260.445312 181.222656 C 260.484375 181.390625 260.445312 181.5625 260.328125 181.710938 L 260.269531 181.789062 C 261.730469 182.070312 267.234375 183.179688 267.234375 183.179688 C 267.234375 183.179688 260.140625 183.109375 259.46875 183.277344 C 258.78125 183.429688 257.8125 184.269531 257.8125 184.269531 L 245.117188 183.886719 C 239.085938 188.535156 240.359375 204.691406 245.15625 209.144531 L 270.238281 209.144531 C 269.878906 208.960938 269.527344 208.753906 269.183594 208.519531 C 264.648438 208.40625 249.605469 208.027344 248.253906 207.78125 C 246.664062 207.492188 242.503906 203.726562 243.191406 195.839844 C 243.863281 187.953125 249.132812 186.511719 249.9375 186.339844 C 250.738281 186.171875 250.132812 186.300781 250.28125 186.269531 C 245.785156 190.121094 245.6875 200.332031 249.125 203.929688 C 248.332031 201.800781 247.742188 198.824219 247.800781 195.910156 C 249.4375 195.859375 254.160156 195.519531 254.257812 195.140625 C 254.355469 194.742188 249.320312 195.0625 247.820312 195.167969 C 247.871094 194.429688 247.949219 193.691406 248.066406 192.980469 C 249.75 192.941406 255.109375 192.582031 255.226562 192.15625 C 255.332031 191.746094 249.878906 192.078125 248.222656 192.195312 C 248.339844 191.699219 248.476562 191.210938 248.632812 190.753906 C 250.074219 190.6875 256.226562 190.082031 256.351562 189.644531 C 256.46875 189.21875 250.582031 189.78125 248.957031 189.945312 C 249.191406 189.410156 249.476562 188.914062 249.800781 188.457031 C 249.808594 188.449219 249.820312 188.429688 249.839844 188.421875 C 251.121094 188.371094 255.910156 187.847656 257.625 187.671875 C 255.519531 192.542969 256 200.867188 259.339844 204.960938 C 259.339844 204.960938 257.007812 200.761719 257.496094 193.75 C 257.742188 190.210938 259.710938 184.480469 263.835938 183.957031 C 266.851562 183.578125 265.589844 184.382812 264.324219 186.085938 C 264.089844 186.40625 262.628906 188.515625 262.191406 191.949219 C 261.757812 195.335938 262.628906 200.3125 264.980469 203.320312 C 264.011719 201.199219 263.453125 198.71875 263.453125 196.082031 C 263.453125 192.269531 264.609375 188.808594 266.480469 186.289062 C 268.410156 183.683594 271.101562 182.070312 274.097656 182.070312 C 277.085938 182.070312 279.78125 183.683594 281.710938 186.289062 C 283.578125 188.808594 284.734375 192.269531 284.734375 196.082031 C 284.734375 199.886719 283.578125 203.347656 281.710938 205.867188 C 279.9375 208.269531 277.507812 209.835938 274.785156 210.058594 C 274.097656 210.5625 272.128906 210.621094 272.128906 210.621094 C 272.128906 210.621094 224.375 210.71875 222.464844 210.621094 C 220.554688 210.523438 220.035156 210.105469 220.332031 209.589844 C 220.59375 209.125 222.515625 209.132812 222.835938 209.144531 Z M 259.191406 181.144531 C 259.015625 180.359375 258.78125 179.597656 258.46875 178.871094 C 258.15625 178.113281 257.742188 177.382812 257.242188 176.671875 C 255.753906 176.351562 254.21875 176.089844 252.648438 175.835938 C 251.179688 175.613281 249.664062 175.398438 248.125 175.203125 C 247.960938 175.980469 247.46875 180.113281 247.46875 180.113281 Z M 240.105469 193.972656 C 237.207031 194.847656 237.519531 199.847656 240.359375 200.167969 C 240.054688 197.628906 239.976562 195.761719 240.105469 193.972656 Z M 237.292969 180.542969 C 237.125 179.785156 236.804688 178.316406 236.558594 177.996094 C 236.449219 177.976562 236.214844 177.976562 235.894531 177.996094 L 236.273438 179.929688 C 236.3125 180.132812 236.1875 180.320312 235.992188 180.359375 C 235.792969 180.398438 235.597656 180.269531 235.558594 180.078125 L 235.15625 178.054688 C 234.785156 178.09375 234.375 178.152344 233.925781 178.207031 L 234.335938 180.261719 C 234.375 180.464844 234.238281 180.648438 234.042969 180.6875 C 233.847656 180.726562 233.648438 180.601562 233.609375 180.40625 L 233.199219 178.316406 C 232.855469 178.363281 232.503906 178.421875 232.152344 178.480469 L 232.074219 178.492188 L 232.484375 180.582031 C 232.523438 180.777344 232.398438 180.960938 232.199219 181 C 231.996094 181.039062 231.808594 180.914062 231.769531 180.71875 L 231.347656 178.617188 C 230.867188 178.703125 230.410156 178.800781 229.976562 178.890625 L 230.527344 181.710938 C 232.808594 181.292969 235.65625 180.816406 237.292969 180.542969 Z M 268.015625 202.140625 C 267.273438 202.140625 266.597656 201.605469 266.085938 200.730469 C 266.546875 202.238281 267.214844 203.589844 268.054688 204.71875 C 268.351562 205.117188 268.664062 205.488281 269.007812 205.828125 C 269.820312 206.265625 270.710938 206.507812 271.632812 206.507812 C 275.785156 206.507812 279.152344 201.683594 279.152344 195.742188 C 279.152344 193.242188 278.554688 190.9375 277.554688 189.109375 C 277.535156 189.082031 276.957031 188.304688 276.65625 188.097656 C 276.351562 187.886719 276.253906 187.886719 276.253906 187.886719 C 276.253906 187.886719 279.023438 193.339844 277.625 198.496094 C 276.234375 203.640625 274.519531 204 274.355469 203.738281 C 274.199219 203.484375 277.371094 198.746094 276.136719 193.46875 C 275.402344 190.296875 274.433594 188.847656 273.785156 188.195312 C 273.609375 188.1875 273.441406 188.207031 273.441406 188.34375 C 273.460938 188.613281 275.8125 192.796875 275.265625 197.339844 C 274.714844 201.871094 273.0625 202.0625 272.964844 201.871094 C 272.867188 201.675781 274.648438 198.261719 273.539062 193.660156 C 272.445312 189.0625 269.496094 188.421875 267.773438 189.355469 C 267.214844 189.65625 266.742188 190.121094 266.371094 190.597656 C 265.960938 191.699219 265.675781 192.882812 265.527344 194.148438 C 266.019531 192.503906 266.949219 191.394531 268.015625 191.394531 C 269.59375 191.394531 270.867188 193.796875 270.867188 196.773438 C 270.867188 199.742188 269.59375 202.140625 268.015625 202.140625 " fill-opacity="1" fill-rule="evenodd"/></g><g clip-path="url(#1617b374fa)"><path fill="#000000" d="M 189.167969 173.25 C 182.699219 174.441406 181.734375 175.40625 180.542969 181.875 C 179.351562 175.40625 178.386719 174.441406 171.917969 173.25 C 178.386719 172.058594 179.351562 171.09375 180.542969 164.625 C 181.734375 171.09375 182.699219 172.058594 189.167969 173.25 Z M 189.167969 173.25 " fill-opacity="1" fill-rule="nonzero"/></g><g fill="#000000" fill-opacity="1"><g transform="translate(120.743603, 225.107006)"><g><path d="M 4.6875 -5.34375 C 5.238281 -5.34375 5.726562 -5.226562 6.15625 -5 C 6.582031 -4.769531 6.914062 -4.453125 7.15625 -4.046875 C 7.394531 -3.640625 7.515625 -3.164062 7.515625 -2.625 C 7.515625 -2.101562 7.394531 -1.632812 7.15625 -1.21875 C 6.914062 -0.8125 6.582031 -0.488281 6.15625 -0.25 C 5.738281 -0.0195312 5.253906 0.09375 4.703125 0.09375 C 4.242188 0.09375 3.828125 0.00390625 3.453125 -0.171875 C 3.078125 -0.347656 2.789062 -0.539062 2.59375 -0.75 L 2.59375 2.203125 L 1.546875 2.203125 L 1.546875 -5.265625 L 2.59375 -5.265625 L 2.59375 -4.453125 C 2.707031 -4.597656 2.867188 -4.738281 3.078125 -4.875 C 3.296875 -5.007812 3.539062 -5.117188 3.8125 -5.203125 C 4.082031 -5.296875 4.375 -5.34375 4.6875 -5.34375 Z M 4.546875 -4.390625 C 4.148438 -4.390625 3.800781 -4.3125 3.5 -4.15625 C 3.195312 -4.007812 2.960938 -3.800781 2.796875 -3.53125 C 2.628906 -3.269531 2.546875 -2.96875 2.546875 -2.625 C 2.546875 -2.289062 2.628906 -1.988281 2.796875 -1.71875 C 2.960938 -1.457031 3.195312 -1.25 3.5 -1.09375 C 3.800781 -0.9375 4.148438 -0.859375 4.546875 -0.859375 C 4.929688 -0.859375 5.269531 -0.9375 5.5625 -1.09375 C 5.863281 -1.25 6.097656 -1.457031 6.265625 -1.71875 C 6.441406 -1.988281 6.53125 -2.289062 6.53125 -2.625 C 6.53125 -2.96875 6.441406 -3.269531 6.265625 -3.53125 C 6.097656 -3.800781 5.863281 -4.007812 5.5625 -4.15625 C 5.269531 -4.3125 4.929688 -4.390625 4.546875 -4.390625 Z M 4.546875 -4.390625 "/></g></g></g><g fill="#000000" fill-opacity="1"><g transform="translate(136.710256, 225.107006)"><g><path d="M 4.625 -5.359375 C 5.132812 -5.359375 5.546875 -5.257812 5.859375 -5.0625 C 6.171875 -4.863281 6.398438 -4.59375 6.546875 -4.25 C 6.691406 -3.914062 6.765625 -3.546875 6.765625 -3.140625 L 6.765625 0 L 5.734375 0 L 5.734375 -3.015625 C 5.734375 -3.429688 5.601562 -3.769531 5.34375 -4.03125 C 5.09375 -4.300781 4.742188 -4.4375 4.296875 -4.4375 C 3.960938 -4.4375 3.664062 -4.359375 3.40625 -4.203125 C 3.144531 -4.046875 2.941406 -3.851562 2.796875 -3.625 C 2.648438 -3.40625 2.578125 -3.179688 2.578125 -2.953125 L 2.578125 0 L 1.546875 0 L 1.546875 -7.40625 L 2.578125 -7.40625 L 2.578125 -4.390625 C 2.785156 -4.648438 3.070312 -4.875 3.4375 -5.0625 C 3.800781 -5.257812 4.195312 -5.359375 4.625 -5.359375 Z M 4.625 -5.359375 "/></g></g></g><g fill="#000000" fill-opacity="1"><g transform="translate(152.546961, 225.107006)"><g><path d="M 7.15625 -2.625 C 7.15625 -2.09375 7.019531 -1.617188 6.75 -1.203125 C 6.476562 -0.796875 6.109375 -0.476562 5.640625 -0.25 C 5.171875 -0.0195312 4.632812 0.09375 4.03125 0.09375 C 3.425781 0.09375 2.882812 -0.0195312 2.40625 -0.25 C 1.9375 -0.476562 1.566406 -0.796875 1.296875 -1.203125 C 1.035156 -1.617188 0.90625 -2.09375 0.90625 -2.625 C 0.90625 -3.164062 1.035156 -3.640625 1.296875 -4.046875 C 1.566406 -4.453125 1.9375 -4.769531 2.40625 -5 C 2.882812 -5.238281 3.425781 -5.359375 4.03125 -5.359375 C 4.632812 -5.359375 5.171875 -5.238281 5.640625 -5 C 6.109375 -4.769531 6.476562 -4.453125 6.75 -4.046875 C 7.019531 -3.640625 7.15625 -3.164062 7.15625 -2.625 Z M 6.09375 -2.625 C 6.101562 -2.976562 6.015625 -3.289062 5.828125 -3.5625 C 5.648438 -3.832031 5.40625 -4.039062 5.09375 -4.1875 C 4.78125 -4.34375 4.425781 -4.421875 4.03125 -4.421875 C 3.644531 -4.421875 3.289062 -4.34375 2.96875 -4.1875 C 2.644531 -4.039062 2.390625 -3.832031 2.203125 -3.5625 C 2.023438 -3.289062 1.941406 -2.976562 1.953125 -2.625 C 1.941406 -2.28125 2.023438 -1.972656 2.203125 -1.703125 C 2.390625 -1.429688 2.644531 -1.21875 2.96875 -1.0625 C 3.289062 -0.914062 3.644531 -0.84375 4.03125 -0.84375 C 4.425781 -0.84375 4.78125 -0.914062 5.09375 -1.0625 C 5.40625 -1.21875 5.648438 -1.429688 5.828125 -1.703125 C 6.015625 -1.972656 6.101562 -2.28125 6.09375 -2.625 Z M 6.09375 -2.625 "/></g></g></g><g fill="#000000" fill-opacity="1"><g transform="translate(168.133761, 225.107006)"><g><path d="M 3.28125 0 L 2.25 0 L 2.25 -4.25 L 0.8125 -4.25 L 0.8125 -5.25 L 2.25 -5.25 L 2.25 -6.765625 L 3.28125 -6.765625 L 3.28125 -5.25 L 4.953125 -5.25 L 4.953125 -4.25 L 3.28125 -4.25 Z M 3.28125 0 "/></g></g></g><g fill="#000000" fill-opacity="1"><g transform="translate(181.551426, 225.107006)"><g><path d="M 7.15625 -2.625 C 7.15625 -2.09375 7.019531 -1.617188 6.75 -1.203125 C 6.476562 -0.796875 6.109375 -0.476562 5.640625 -0.25 C 5.171875 -0.0195312 4.632812 0.09375 4.03125 0.09375 C 3.425781 0.09375 2.882812 -0.0195312 2.40625 -0.25 C 1.9375 -0.476562 1.566406 -0.796875 1.296875 -1.203125 C 1.035156 -1.617188 0.90625 -2.09375 0.90625 -2.625 C 0.90625 -3.164062 1.035156 -3.640625 1.296875 -4.046875 C 1.566406 -4.453125 1.9375 -4.769531 2.40625 -5 C 2.882812 -5.238281 3.425781 -5.359375 4.03125 -5.359375 C 4.632812 -5.359375 5.171875 -5.238281 5.640625 -5 C 6.109375 -4.769531 6.476562 -4.453125 6.75 -4.046875 C 7.019531 -3.640625 7.15625 -3.164062 7.15625 -2.625 Z M 6.09375 -2.625 C 6.101562 -2.976562 6.015625 -3.289062 5.828125 -3.5625 C 5.648438 -3.832031 5.40625 -4.039062 5.09375 -4.1875 C 4.78125 -4.34375 4.425781 -4.421875 4.03125 -4.421875 C 3.644531 -4.421875 3.289062 -4.34375 2.96875 -4.1875 C 2.644531 -4.039062 2.390625 -3.832031 2.203125 -3.5625 C 2.023438 -3.289062 1.941406 -2.976562 1.953125 -2.625 C 1.941406 -2.28125 2.023438 -1.972656 2.203125 -1.703125 C 2.390625 -1.429688 2.644531 -1.21875 2.96875 -1.0625 C 3.289062 -0.914062 3.644531 -0.84375 4.03125 -0.84375 C 4.425781 -0.84375 4.78125 -0.914062 5.09375 -1.0625 C 5.40625 -1.21875 5.648438 -1.429688 5.828125 -1.703125 C 6.015625 -1.972656 6.101562 -2.28125 6.09375 -2.625 Z M 6.09375 -2.625 "/></g></g></g><g fill="#000000" fill-opacity="1"><g transform="translate(197.138227, 225.107006)"><g><path d="M 2.1875 0.84375 C 2.394531 0.96875 2.664062 1.085938 3 1.203125 C 3.34375 1.316406 3.726562 1.375 4.15625 1.375 C 4.707031 1.375 5.148438 1.21875 5.484375 0.90625 C 5.816406 0.601562 5.984375 0.160156 5.984375 -0.421875 L 5.984375 -0.875 C 5.878906 -0.707031 5.710938 -0.550781 5.484375 -0.40625 C 5.265625 -0.257812 5.003906 -0.140625 4.703125 -0.046875 C 4.398438 0.046875 4.082031 0.09375 3.75 0.09375 C 3.195312 0.09375 2.703125 -0.0195312 2.265625 -0.25 C 1.835938 -0.476562 1.503906 -0.800781 1.265625 -1.21875 C 1.023438 -1.632812 0.90625 -2.101562 0.90625 -2.625 C 0.90625 -3.164062 1.03125 -3.640625 1.28125 -4.046875 C 1.53125 -4.453125 1.875 -4.769531 2.3125 -5 C 2.757812 -5.238281 3.265625 -5.359375 3.828125 -5.359375 C 4.316406 -5.359375 4.753906 -5.265625 5.140625 -5.078125 C 5.523438 -4.898438 5.804688 -4.707031 5.984375 -4.5 L 5.984375 -5.25 L 7.015625 -5.25 L 7.015625 -0.546875 C 7.015625 -0.046875 6.9375 0.378906 6.78125 0.734375 C 6.625 1.097656 6.410156 1.394531 6.140625 1.625 C 5.867188 1.851562 5.5625 2.019531 5.21875 2.125 C 4.875 2.238281 4.519531 2.296875 4.15625 2.296875 C 3.644531 2.296875 3.1875 2.234375 2.78125 2.109375 C 2.382812 1.992188 2.0625 1.847656 1.8125 1.671875 Z M 4.03125 -4.421875 C 3.625 -4.421875 3.265625 -4.34375 2.953125 -4.1875 C 2.640625 -4.03125 2.394531 -3.816406 2.21875 -3.546875 C 2.039062 -3.273438 1.953125 -2.96875 1.953125 -2.625 C 1.953125 -2.289062 2.039062 -1.988281 2.21875 -1.71875 C 2.394531 -1.445312 2.640625 -1.234375 2.953125 -1.078125 C 3.265625 -0.921875 3.625 -0.84375 4.03125 -0.84375 C 4.425781 -0.84375 4.773438 -0.921875 5.078125 -1.078125 C 5.378906 -1.234375 5.613281 -1.445312 5.78125 -1.71875 C 5.945312 -1.988281 6.03125 -2.289062 6.03125 -2.625 C 6.03125 -2.976562 5.945312 -3.285156 5.78125 -3.546875 C 5.613281 -3.816406 5.378906 -4.03125 5.078125 -4.1875 C 4.773438 -4.34375 4.425781 -4.421875 4.03125 -4.421875 Z M 4.03125 -4.421875 "/></g></g></g><g fill="#000000" fill-opacity="1"><g transform="translate(213.134874, 225.107006)"><g><path d="M 5.15625 -4.0625 C 5.039062 -4.125 4.898438 -4.171875 4.734375 -4.203125 C 4.578125 -4.242188 4.421875 -4.265625 4.265625 -4.265625 C 3.953125 -4.265625 3.664062 -4.191406 3.40625 -4.046875 C 3.15625 -3.910156 2.957031 -3.722656 2.8125 -3.484375 C 2.664062 -3.253906 2.59375 -3.003906 2.59375 -2.734375 L 2.59375 0 L 1.546875 0 L 1.546875 -5.25 L 2.59375 -5.25 L 2.59375 -4.15625 C 2.789062 -4.507812 3.054688 -4.796875 3.390625 -5.015625 C 3.734375 -5.242188 4.09375 -5.359375 4.46875 -5.359375 C 4.65625 -5.359375 4.835938 -5.335938 5.015625 -5.296875 C 5.191406 -5.265625 5.332031 -5.21875 5.4375 -5.15625 Z M 5.15625 -4.0625 "/></g></g></g><g fill="#000000" fill-opacity="1"><g transform="translate(226.822431, 225.107006)"><g><path d="M 6.859375 -5.25 L 6.859375 0 L 5.8125 0 L 5.8125 -0.875 C 5.695312 -0.707031 5.53125 -0.550781 5.3125 -0.40625 C 5.09375 -0.257812 4.835938 -0.140625 4.546875 -0.046875 C 4.265625 0.046875 3.960938 0.09375 3.640625 0.09375 C 3.085938 0.09375 2.597656 -0.0195312 2.171875 -0.25 C 1.753906 -0.476562 1.425781 -0.800781 1.1875 -1.21875 C 0.957031 -1.632812 0.84375 -2.101562 0.84375 -2.625 C 0.84375 -3.164062 0.960938 -3.640625 1.203125 -4.046875 C 1.453125 -4.453125 1.796875 -4.769531 2.234375 -5 C 2.671875 -5.238281 3.175781 -5.359375 3.75 -5.359375 C 4.207031 -5.359375 4.617188 -5.269531 4.984375 -5.09375 C 5.347656 -4.925781 5.625 -4.734375 5.8125 -4.515625 L 5.8125 -5.25 Z M 3.875 -0.84375 C 4.269531 -0.84375 4.613281 -0.921875 4.90625 -1.078125 C 5.207031 -1.234375 5.441406 -1.445312 5.609375 -1.71875 C 5.773438 -1.988281 5.859375 -2.289062 5.859375 -2.625 C 5.859375 -2.96875 5.773438 -3.269531 5.609375 -3.53125 C 5.441406 -3.800781 5.207031 -4.015625 4.90625 -4.171875 C 4.613281 -4.328125 4.269531 -4.40625 3.875 -4.40625 C 3.488281 -4.40625 3.144531 -4.328125 2.84375 -4.171875 C 2.550781 -4.015625 2.316406 -3.800781 2.140625 -3.53125 C 1.972656 -3.269531 1.890625 -2.96875 1.890625 -2.625 C 1.890625 -2.289062 1.972656 -1.988281 2.140625 -1.71875 C 2.316406 -1.445312 2.550781 -1.234375 2.84375 -1.078125 C 3.144531 -0.921875 3.488281 -0.84375 3.875 -0.84375 Z M 3.875 -0.84375 "/></g></g></g><g fill="#000000" fill-opacity="1"><g transform="translate(242.65913, 225.107006)"><g><path d="M 4.6875 -5.34375 C 5.238281 -5.34375 5.726562 -5.226562 6.15625 -5 C 6.582031 -4.769531 6.914062 -4.453125 7.15625 -4.046875 C 7.394531 -3.640625 7.515625 -3.164062 7.515625 -2.625 C 7.515625 -2.101562 7.394531 -1.632812 7.15625 -1.21875 C 6.914062 -0.8125 6.582031 -0.488281 6.15625 -0.25 C 5.738281 -0.0195312 5.253906 0.09375 4.703125 0.09375 C 4.242188 0.09375 3.828125 0.00390625 3.453125 -0.171875 C 3.078125 -0.347656 2.789062 -0.539062 2.59375 -0.75 L 2.59375 2.203125 L 1.546875 2.203125 L 1.546875 -5.265625 L 2.59375 -5.265625 L 2.59375 -4.453125 C 2.707031 -4.597656 2.867188 -4.738281 3.078125 -4.875 C 3.296875 -5.007812 3.539062 -5.117188 3.8125 -5.203125 C 4.082031 -5.296875 4.375 -5.34375 4.6875 -5.34375 Z M 4.546875 -4.390625 C 4.148438 -4.390625 3.800781 -4.3125 3.5 -4.15625 C 3.195312 -4.007812 2.960938 -3.800781 2.796875 -3.53125 C 2.628906 -3.269531 2.546875 -2.96875 2.546875 -2.625 C 2.546875 -2.289062 2.628906 -1.988281 2.796875 -1.71875 C 2.960938 -1.457031 3.195312 -1.25 3.5 -1.09375 C 3.800781 -0.9375 4.148438 -0.859375 4.546875 -0.859375 C 4.929688 -0.859375 5.269531 -0.9375 5.5625 -1.09375 C 5.863281 -1.25 6.097656 -1.457031 6.265625 -1.71875 C 6.441406 -1.988281 6.53125 -2.289062 6.53125 -2.625 C 6.53125 -2.96875 6.441406 -3.269531 6.265625 -3.53125 C 6.097656 -3.800781 5.863281 -4.007812 5.5625 -4.15625 C 5.269531 -4.3125 4.929688 -4.390625 4.546875 -4.390625 Z M 4.546875 -4.390625 "/></g></g></g><g fill="#000000" fill-opacity="1"><g transform="translate(258.625788, 225.107006)"><g><path d="M 4.625 -5.359375 C 5.132812 -5.359375 5.546875 -5.257812 5.859375 -5.0625 C 6.171875 -4.863281 6.398438 -4.59375 6.546875 -4.25 C 6.691406 -3.914062 6.765625 -3.546875 6.765625 -3.140625 L 6.765625 0 L 5.734375 0 L 5.734375 -3.015625 C 5.734375 -3.429688 5.601562 -3.769531 5.34375 -4.03125 C 5.09375 -4.300781 4.742188 -4.4375 4.296875 -4.4375 C 3.960938 -4.4375 3.664062 -4.359375 3.40625 -4.203125 C 3.144531 -4.046875 2.941406 -3.851562 2.796875 -3.625 C 2.648438 -3.40625 2.578125 -3.179688 2.578125 -2.953125 L 2.578125 0 L 1.546875 0 L 1.546875 -7.40625 L 2.578125 -7.40625 L 2.578125 -4.390625 C 2.785156 -4.648438 3.070312 -4.875 3.4375 -5.0625 C 3.800781 -5.257812 4.195312 -5.359375 4.625 -5.359375 Z M 4.625 -5.359375 "/></g></g></g><g fill="#000000" fill-opacity="1"><g transform="translate(274.462488, 225.107006)"><g><path d="M 2.40625 2.296875 L 3.453125 0.265625 L 0.640625 -5.25 L 1.84375 -5.25 L 3.4375 -1.9375 C 3.539062 -1.726562 3.644531 -1.515625 3.75 -1.296875 C 3.851562 -1.078125 3.929688 -0.878906 3.984375 -0.703125 C 4.054688 -0.890625 4.140625 -1.085938 4.234375 -1.296875 C 4.328125 -1.515625 4.429688 -1.742188 4.546875 -1.984375 L 5.984375 -5.25 L 7.203125 -5.25 L 4.609375 -0.015625 L 3.5 2.296875 Z M 2.40625 2.296875 "/></g></g></g></svg>